<mxfile host="app.diagrams.net" agent="Mozilla/5.0 (Windows NT 10.0; Win64; x64) AppleWebKit/537.36 (KHTML, like Gecko) Chrome/132.0.0.0 YaBrowser/25.2.0.0 Safari/537.36" version="26.0.16">
  <diagram name="Страница — 1" id="AqQXiT6Z7RfFUdrMdVaR">
    <mxGraphModel dx="1414" dy="893" grid="1" gridSize="10" guides="1" tooltips="1" connect="1" arrows="1" fold="1" page="1" pageScale="1" pageWidth="827" pageHeight="1169" math="0" shadow="0">
      <root>
        <mxCell id="0" />
        <mxCell id="1" parent="0" />
        <mxCell id="AbmG4Bhr6RF6K7J6KOYi-2" value="Частный пользователь" style="shape=umlActor;verticalLabelPosition=bottom;verticalAlign=top;html=1;outlineConnect=0;" parent="1" vertex="1">
          <mxGeometry x="240" y="560" width="30" height="60" as="geometry" />
        </mxCell>
        <mxCell id="AbmG4Bhr6RF6K7J6KOYi-3" value="Компания" style="shape=umlActor;verticalLabelPosition=bottom;verticalAlign=top;html=1;outlineConnect=0;" parent="1" vertex="1">
          <mxGeometry x="240" y="730" width="30" height="60" as="geometry" />
        </mxCell>
        <mxCell id="AbmG4Bhr6RF6K7J6KOYi-4" value="Администратор" style="shape=umlActor;verticalLabelPosition=bottom;verticalAlign=top;html=1;outlineConnect=0;" parent="1" vertex="1">
          <mxGeometry x="1321" y="660" width="30" height="60" as="geometry" />
        </mxCell>
        <mxCell id="AbmG4Bhr6RF6K7J6KOYi-10" value="Гость" style="shape=umlActor;verticalLabelPosition=bottom;verticalAlign=top;html=1;outlineConnect=0;" parent="1" vertex="1">
          <mxGeometry x="240" y="340" width="30" height="60" as="geometry" />
        </mxCell>
        <mxCell id="AbmG4Bhr6RF6K7J6KOYi-11" value="Выбор формата регистрации" style="ellipse;whiteSpace=wrap;html=1;" parent="1" vertex="1">
          <mxGeometry x="350" y="330" width="120" height="80" as="geometry" />
        </mxCell>
        <mxCell id="AbmG4Bhr6RF6K7J6KOYi-13" value="" style="endArrow=none;html=1;rounded=0;" parent="1" source="AbmG4Bhr6RF6K7J6KOYi-10" target="AbmG4Bhr6RF6K7J6KOYi-11" edge="1">
          <mxGeometry width="50" height="50" relative="1" as="geometry">
            <mxPoint x="310" y="510" as="sourcePoint" />
            <mxPoint x="360" y="460" as="targetPoint" />
          </mxGeometry>
        </mxCell>
        <mxCell id="EvbB33QBFaXhQcK5xgCM-5" value="ex" style="edgeStyle=orthogonalEdgeStyle;rounded=0;orthogonalLoop=1;jettySize=auto;html=1;entryX=1;entryY=0.5;entryDx=0;entryDy=0;dashed=1;" edge="1" parent="1" source="EvbB33QBFaXhQcK5xgCM-4" target="AbmG4Bhr6RF6K7J6KOYi-11">
          <mxGeometry relative="1" as="geometry" />
        </mxCell>
        <mxCell id="EvbB33QBFaXhQcK5xgCM-8" value="in" style="edgeStyle=orthogonalEdgeStyle;rounded=0;orthogonalLoop=1;jettySize=auto;html=1;dashed=1;" edge="1" parent="1" source="EvbB33QBFaXhQcK5xgCM-4" target="EvbB33QBFaXhQcK5xgCM-9">
          <mxGeometry relative="1" as="geometry">
            <mxPoint x="700" y="290" as="targetPoint" />
          </mxGeometry>
        </mxCell>
        <mxCell id="EvbB33QBFaXhQcK5xgCM-4" value="Выбор регистрирования как частный пользователь" style="ellipse;whiteSpace=wrap;html=1;" vertex="1" parent="1">
          <mxGeometry x="510" y="240" width="170" height="100" as="geometry" />
        </mxCell>
        <mxCell id="EvbB33QBFaXhQcK5xgCM-7" value="ex" style="edgeStyle=orthogonalEdgeStyle;rounded=0;orthogonalLoop=1;jettySize=auto;html=1;dashed=1;" edge="1" parent="1" source="EvbB33QBFaXhQcK5xgCM-6" target="AbmG4Bhr6RF6K7J6KOYi-11">
          <mxGeometry relative="1" as="geometry" />
        </mxCell>
        <mxCell id="EvbB33QBFaXhQcK5xgCM-11" value="in" style="edgeStyle=orthogonalEdgeStyle;rounded=0;orthogonalLoop=1;jettySize=auto;html=1;dashed=1;" edge="1" parent="1" source="EvbB33QBFaXhQcK5xgCM-6" target="EvbB33QBFaXhQcK5xgCM-10">
          <mxGeometry relative="1" as="geometry" />
        </mxCell>
        <mxCell id="EvbB33QBFaXhQcK5xgCM-6" value="Выбор регистрирования как компания" style="ellipse;whiteSpace=wrap;html=1;" vertex="1" parent="1">
          <mxGeometry x="510" y="390" width="190" height="80" as="geometry" />
        </mxCell>
        <mxCell id="EvbB33QBFaXhQcK5xgCM-18" value="in" style="edgeStyle=orthogonalEdgeStyle;rounded=0;orthogonalLoop=1;jettySize=auto;html=1;dashed=1;" edge="1" parent="1" source="EvbB33QBFaXhQcK5xgCM-9" target="EvbB33QBFaXhQcK5xgCM-12">
          <mxGeometry relative="1" as="geometry">
            <Array as="points">
              <mxPoint x="1070" y="290" />
              <mxPoint x="1070" y="290" />
            </Array>
          </mxGeometry>
        </mxCell>
        <mxCell id="EvbB33QBFaXhQcK5xgCM-9" value="Ввод email, имени, пароля, повтор пароля" style="ellipse;whiteSpace=wrap;html=1;" vertex="1" parent="1">
          <mxGeometry x="741" y="250" width="139" height="80" as="geometry" />
        </mxCell>
        <mxCell id="EvbB33QBFaXhQcK5xgCM-10" value="расширенная регистрация (название, юридический адрес, ИНН, сайт, контактное лицо)" style="ellipse;whiteSpace=wrap;html=1;" vertex="1" parent="1">
          <mxGeometry x="760" y="375" width="230" height="110" as="geometry" />
        </mxCell>
        <mxCell id="EvbB33QBFaXhQcK5xgCM-21" value="Авторизирование пользователя" style="ellipse;whiteSpace=wrap;html=1;" vertex="1" parent="1">
          <mxGeometry x="360" y="550" width="120" height="80" as="geometry" />
        </mxCell>
        <mxCell id="EvbB33QBFaXhQcK5xgCM-22" value="Авторизирование компании" style="ellipse;whiteSpace=wrap;html=1;" vertex="1" parent="1">
          <mxGeometry x="360" y="720" width="120" height="80" as="geometry" />
        </mxCell>
        <mxCell id="EvbB33QBFaXhQcK5xgCM-24" value="" style="endArrow=none;html=1;rounded=0;" edge="1" parent="1" source="AbmG4Bhr6RF6K7J6KOYi-2" target="EvbB33QBFaXhQcK5xgCM-21">
          <mxGeometry width="50" height="50" relative="1" as="geometry">
            <mxPoint x="400" y="630" as="sourcePoint" />
            <mxPoint x="450" y="580" as="targetPoint" />
          </mxGeometry>
        </mxCell>
        <mxCell id="EvbB33QBFaXhQcK5xgCM-25" value="" style="endArrow=none;html=1;rounded=0;" edge="1" parent="1" source="AbmG4Bhr6RF6K7J6KOYi-3" target="EvbB33QBFaXhQcK5xgCM-22">
          <mxGeometry width="50" height="50" relative="1" as="geometry">
            <mxPoint x="290" y="730" as="sourcePoint" />
            <mxPoint x="340" y="680" as="targetPoint" />
          </mxGeometry>
        </mxCell>
        <mxCell id="EvbB33QBFaXhQcK5xgCM-26" value="Авторизация и вход в админ панель" style="ellipse;whiteSpace=wrap;html=1;" vertex="1" parent="1">
          <mxGeometry x="1121" y="650" width="120" height="80" as="geometry" />
        </mxCell>
        <mxCell id="EvbB33QBFaXhQcK5xgCM-27" value="" style="endArrow=none;html=1;rounded=0;" edge="1" parent="1" source="EvbB33QBFaXhQcK5xgCM-26" target="AbmG4Bhr6RF6K7J6KOYi-4">
          <mxGeometry width="50" height="50" relative="1" as="geometry">
            <mxPoint x="1241" y="700" as="sourcePoint" />
            <mxPoint x="1291" y="650" as="targetPoint" />
          </mxGeometry>
        </mxCell>
        <mxCell id="EvbB33QBFaXhQcK5xgCM-28" value="Верификация компаний" style="ellipse;whiteSpace=wrap;html=1;" vertex="1" parent="1">
          <mxGeometry x="1121" y="500" width="120" height="80" as="geometry" />
        </mxCell>
        <mxCell id="EvbB33QBFaXhQcK5xgCM-29" value="ex" style="endArrow=classic;html=1;rounded=0;dashed=1;" edge="1" parent="1" source="EvbB33QBFaXhQcK5xgCM-28" target="EvbB33QBFaXhQcK5xgCM-26">
          <mxGeometry width="50" height="50" relative="1" as="geometry">
            <mxPoint x="1230" y="600" as="sourcePoint" />
            <mxPoint x="1280" y="550" as="targetPoint" />
          </mxGeometry>
        </mxCell>
        <mxCell id="EvbB33QBFaXhQcK5xgCM-32" value="Создание маршрута" style="ellipse;whiteSpace=wrap;html=1;" vertex="1" parent="1">
          <mxGeometry x="560" y="550" width="140" height="80" as="geometry" />
        </mxCell>
        <mxCell id="EvbB33QBFaXhQcK5xgCM-35" value="ex" style="endArrow=classic;html=1;rounded=0;dashed=1;" edge="1" parent="1" source="EvbB33QBFaXhQcK5xgCM-32" target="EvbB33QBFaXhQcK5xgCM-21">
          <mxGeometry width="50" height="50" relative="1" as="geometry">
            <mxPoint x="589.9989279090537" y="586.0381408129497" as="sourcePoint" />
            <mxPoint x="668.998646411382" y="619.9966692986575" as="targetPoint" />
          </mxGeometry>
        </mxCell>
        <mxCell id="EvbB33QBFaXhQcK5xgCM-36" value="Выдача данных для входа" style="ellipse;whiteSpace=wrap;html=1;" vertex="1" parent="1">
          <mxGeometry x="950" y="500" width="120" height="80" as="geometry" />
        </mxCell>
        <mxCell id="EvbB33QBFaXhQcK5xgCM-38" value="in" style="endArrow=classic;html=1;rounded=0;dashed=1;" edge="1" parent="1" source="EvbB33QBFaXhQcK5xgCM-28" target="EvbB33QBFaXhQcK5xgCM-36">
          <mxGeometry width="50" height="50" relative="1" as="geometry">
            <mxPoint x="970" y="630" as="sourcePoint" />
            <mxPoint x="1020" y="580" as="targetPoint" />
          </mxGeometry>
        </mxCell>
        <mxCell id="EvbB33QBFaXhQcK5xgCM-39" value="ex" style="endArrow=classic;html=1;rounded=0;dashed=1;" edge="1" parent="1" source="EvbB33QBFaXhQcK5xgCM-32" target="EvbB33QBFaXhQcK5xgCM-22">
          <mxGeometry x="0.2033" y="-1" width="50" height="50" relative="1" as="geometry">
            <mxPoint x="670" y="800" as="sourcePoint" />
            <mxPoint x="580" y="740" as="targetPoint" />
            <mxPoint as="offset" />
          </mxGeometry>
        </mxCell>
        <mxCell id="EvbB33QBFaXhQcK5xgCM-40" value="Указание точек на пути, описание, фото" style="ellipse;whiteSpace=wrap;html=1;" vertex="1" parent="1">
          <mxGeometry x="770" y="550" width="170" height="80" as="geometry" />
        </mxCell>
        <mxCell id="EvbB33QBFaXhQcK5xgCM-41" value="in" style="endArrow=classic;html=1;rounded=0;dashed=1;" edge="1" parent="1" source="EvbB33QBFaXhQcK5xgCM-32" target="EvbB33QBFaXhQcK5xgCM-40">
          <mxGeometry width="50" height="50" relative="1" as="geometry">
            <mxPoint x="660" y="760" as="sourcePoint" />
            <mxPoint x="710" y="710" as="targetPoint" />
          </mxGeometry>
        </mxCell>
        <mxCell id="EvbB33QBFaXhQcK5xgCM-42" value="Просмотр тур. путей" style="ellipse;whiteSpace=wrap;html=1;" vertex="1" parent="1">
          <mxGeometry x="580" y="720" width="140" height="80" as="geometry" />
        </mxCell>
        <mxCell id="EvbB33QBFaXhQcK5xgCM-43" value="ex" style="endArrow=classic;html=1;rounded=0;dashed=1;" edge="1" parent="1" source="EvbB33QBFaXhQcK5xgCM-42" target="EvbB33QBFaXhQcK5xgCM-21">
          <mxGeometry x="-0.2257" width="50" height="50" relative="1" as="geometry">
            <mxPoint x="550" y="720" as="sourcePoint" />
            <mxPoint x="600" y="670" as="targetPoint" />
            <mxPoint as="offset" />
          </mxGeometry>
        </mxCell>
        <mxCell id="EvbB33QBFaXhQcK5xgCM-44" value="ex" style="endArrow=classic;html=1;rounded=0;dashed=1;" edge="1" parent="1" source="EvbB33QBFaXhQcK5xgCM-42" target="EvbB33QBFaXhQcK5xgCM-22">
          <mxGeometry width="50" height="50" relative="1" as="geometry">
            <mxPoint x="550" y="640" as="sourcePoint" />
            <mxPoint x="600" y="590" as="targetPoint" />
          </mxGeometry>
        </mxCell>
        <mxCell id="EvbB33QBFaXhQcK5xgCM-45" value="Комментирование" style="ellipse;whiteSpace=wrap;html=1;" vertex="1" parent="1">
          <mxGeometry x="785" y="720" width="120" height="80" as="geometry" />
        </mxCell>
        <mxCell id="EvbB33QBFaXhQcK5xgCM-46" value="ex" style="endArrow=classic;html=1;rounded=0;dashed=1;" edge="1" parent="1" source="EvbB33QBFaXhQcK5xgCM-45" target="EvbB33QBFaXhQcK5xgCM-42">
          <mxGeometry width="50" height="50" relative="1" as="geometry">
            <mxPoint x="720" y="880" as="sourcePoint" />
            <mxPoint x="770" y="830" as="targetPoint" />
          </mxGeometry>
        </mxCell>
        <mxCell id="EvbB33QBFaXhQcK5xgCM-48" value="Добавление в избранное" style="ellipse;whiteSpace=wrap;html=1;" vertex="1" parent="1">
          <mxGeometry x="590" y="840" width="120" height="60" as="geometry" />
        </mxCell>
        <mxCell id="EvbB33QBFaXhQcK5xgCM-49" value="ex" style="endArrow=classic;html=1;rounded=0;dashed=1;" edge="1" parent="1" target="EvbB33QBFaXhQcK5xgCM-42">
          <mxGeometry width="50" height="50" relative="1" as="geometry">
            <mxPoint x="650" y="850" as="sourcePoint" />
            <mxPoint x="480" y="840" as="targetPoint" />
          </mxGeometry>
        </mxCell>
        <mxCell id="EvbB33QBFaXhQcK5xgCM-50" value="Удаление постов" style="ellipse;whiteSpace=wrap;html=1;" vertex="1" parent="1">
          <mxGeometry x="940" y="650" width="120" height="80" as="geometry" />
        </mxCell>
        <mxCell id="EvbB33QBFaXhQcK5xgCM-52" value="ex" style="endArrow=classic;html=1;rounded=0;dashed=1;" edge="1" parent="1" source="EvbB33QBFaXhQcK5xgCM-50" target="EvbB33QBFaXhQcK5xgCM-26">
          <mxGeometry width="50" height="50" relative="1" as="geometry">
            <mxPoint x="1060" y="790" as="sourcePoint" />
            <mxPoint x="1110" y="740" as="targetPoint" />
          </mxGeometry>
        </mxCell>
        <mxCell id="EvbB33QBFaXhQcK5xgCM-53" value="Выход" style="ellipse;whiteSpace=wrap;html=1;" vertex="1" parent="1">
          <mxGeometry x="377.5" y="660" width="85" height="30" as="geometry" />
        </mxCell>
        <mxCell id="EvbB33QBFaXhQcK5xgCM-54" value="ex" style="endArrow=classic;html=1;rounded=0;dashed=1;" edge="1" parent="1" source="EvbB33QBFaXhQcK5xgCM-53" target="EvbB33QBFaXhQcK5xgCM-21">
          <mxGeometry width="50" height="50" relative="1" as="geometry">
            <mxPoint x="380" y="690" as="sourcePoint" />
            <mxPoint x="430" y="640" as="targetPoint" />
          </mxGeometry>
        </mxCell>
        <mxCell id="EvbB33QBFaXhQcK5xgCM-55" value="ex" style="endArrow=classic;html=1;rounded=0;dashed=1;" edge="1" parent="1" source="EvbB33QBFaXhQcK5xgCM-53" target="EvbB33QBFaXhQcK5xgCM-22">
          <mxGeometry width="50" height="50" relative="1" as="geometry">
            <mxPoint x="420" y="700" as="sourcePoint" />
            <mxPoint x="380" y="680" as="targetPoint" />
          </mxGeometry>
        </mxCell>
        <mxCell id="EvbB33QBFaXhQcK5xgCM-56" value="Тайник путешествиника" style="swimlane;whiteSpace=wrap;html=1;" vertex="1" parent="1">
          <mxGeometry x="330" y="210" width="950" height="720" as="geometry" />
        </mxCell>
        <mxCell id="EvbB33QBFaXhQcK5xgCM-12" value="Авторизация" style="ellipse;whiteSpace=wrap;html=1;" vertex="1" parent="EvbB33QBFaXhQcK5xgCM-56">
          <mxGeometry x="640" y="40" width="100" height="80" as="geometry" />
        </mxCell>
        <mxCell id="EvbB33QBFaXhQcK5xgCM-57" value="Ожидание прохождения верификации" style="ellipse;whiteSpace=wrap;html=1;" vertex="1" parent="EvbB33QBFaXhQcK5xgCM-56">
          <mxGeometry x="720" y="180" width="120" height="80" as="geometry" />
        </mxCell>
        <mxCell id="EvbB33QBFaXhQcK5xgCM-58" value="in" style="endArrow=classic;html=1;rounded=0;dashed=1;" edge="1" parent="1" source="EvbB33QBFaXhQcK5xgCM-10" target="EvbB33QBFaXhQcK5xgCM-57">
          <mxGeometry width="50" height="50" relative="1" as="geometry">
            <mxPoint x="660" y="270" as="sourcePoint" />
            <mxPoint x="1390.7106781186549" y="640" as="targetPoint" />
          </mxGeometry>
        </mxCell>
      </root>
    </mxGraphModel>
  </diagram>
</mxfile>
